<svg id="Layer_1" data-name="Layer 1" xmlns="http://www.w3.org/2000/svg" viewBox="0 0 512 512"><title>money-bag-flat</title><path d="M256,510.4C116.1,510.4,2.28,396.28,2.28,256S116.1,1.6,256,1.6,509.72,115.73,509.72,256,395.9,510.4,256,510.4Z" fill="none" stroke="#131313" stroke-miterlimit="10" stroke-width="4.56"/><ellipse cx="256" cy="256" rx="217.71" ry="218.3" fill="#131313"/><path d="M272.81,193.43c1.19-7.54,4.91-17.07,12.27-23,10-8-6.64-7.34-18-6s-35.88-5.33-41.18-.66-3.34,12,2.65,16c3.47,2.34,7.62,8.74,10.51,13.67-33.94,12.3-59.3,60.78-59.3,118.76A193.57,193.57,0,0,0,181,333.88c1.45,4.83,6,16,17.59,16H311.43s16.25-.52,19.32-14c.19-1.66.38-3.31.54-5a17.72,17.72,0,0,1,.16-2c.48-5.47.75-11.06.75-16.74C332.19,254.19,306.8,205.67,272.81,193.43Zm3.58,113c-4.59,4.82-10.49,7.41-17.76,7.75v10.53h-6.11V314.25a38.6,38.6,0,0,1-12.68-3.5,22.29,22.29,0,0,1-8.43-8.13,29.23,29.23,0,0,1-4.12-13.7l10.45-2c.81,5.59,2.21,9.69,4.26,12.31q4.37,5.55,10.51,6.19V272.31a43.61,43.61,0,0,1-13.1-5,19.39,19.39,0,0,1-7.65-7.69,23,23,0,0,1-2.68-11.17q0-11.1,7.85-18c3.5-3.09,8.68-5,15.58-5.66v-5h6.11v5c6,.57,10.82,2.36,14.35,5.31q6.81,5.68,8.21,15.55l-10.73,1.63c-.63-4.09-1.91-7.22-3.85-9.4a14,14,0,0,0-8-4.3v30A82.18,82.18,0,0,1,269,266.71a25.68,25.68,0,0,1,7.9,5.21,20.47,20.47,0,0,1,4.69,7.28,24.9,24.9,0,0,1,1.67,9.15A25.19,25.19,0,0,1,276.39,306.38Z" fill="#ede9e2"/><path d="M258.62,273.76v31.7a15.38,15.38,0,0,0,10-5.26A16.37,16.37,0,0,0,272.58,289a14,14,0,0,0-2.8-9.12Q267,276.48,258.62,273.76Z" fill="#ede9e2"/><path d="M239.47,247.68a13.52,13.52,0,0,0,3,8.91c2,2.39,5.33,4.29,10.08,5.72V233.51a15.31,15.31,0,0,0-9.55,4.85A13.56,13.56,0,0,0,239.47,247.68Z" fill="#ede9e2"/></svg>